<svg width="226" height="65" viewBox="0 0 226 65" fill="none" xmlns="http://www.w3.org/2000/svg">
<g filter="url(#filter0_d)">
<rect x="4" width="218" height="57" rx="7" fill="#1D4CC5"/>
</g>
<path d="M63.3359 24.5195C63.3359 23.6133 63.0039 22.8945 62.3398 22.3633C61.6836 21.8242 60.7578 21.5547 59.5625 21.5547C58.5625 21.5547 57.7227 21.832 57.043 22.3867C56.3711 22.9336 56.0352 23.6133 56.0352 24.4258H53.7852C53.7852 23.5195 54.0312 22.707 54.5234 21.9883C55.0234 21.2695 55.7188 20.7109 56.6094 20.3125C57.5 19.9062 58.4844 19.7031 59.5625 19.7031C61.4688 19.7031 62.9492 20.1328 64.0039 20.9922C65.0586 21.8438 65.5859 23.0312 65.5859 24.5547C65.5859 25.3438 65.3438 26.0625 64.8594 26.7109C64.375 27.3594 63.6992 27.8711 62.832 28.2461C64.8398 28.918 65.8438 30.25 65.8438 32.2422C65.8438 33.7734 65.2734 34.9883 64.1328 35.8867C62.9922 36.7852 61.4688 37.2344 59.5625 37.2344C58.4297 37.2344 57.3984 37.0352 56.4688 36.6367C55.5469 36.2305 54.8281 35.6562 54.3125 34.9141C53.7969 34.1719 53.5391 33.2891 53.5391 32.2656H55.7891C55.7891 33.1641 56.1445 33.9141 56.8555 34.5156C57.5664 35.1094 58.4688 35.4062 59.5625 35.4062C60.7891 35.4062 61.7656 35.1211 62.4922 34.5508C63.2266 33.9805 63.5938 33.2266 63.5938 32.2891C63.5938 30.2891 62.3555 29.2695 59.8789 29.2305H57.7695V27.3789H59.8672C61.0078 27.3555 61.8711 27.0977 62.457 26.6055C63.043 26.1133 63.3359 25.418 63.3359 24.5195ZM76.3203 37C76.1953 36.75 76.0938 36.3047 76.0156 35.6641C75.0078 36.7109 73.8047 37.2344 72.4062 37.2344C71.1562 37.2344 70.1289 36.8828 69.3242 36.1797C68.5273 35.4688 68.1289 34.5703 68.1289 33.4844C68.1289 32.1641 68.6289 31.1406 69.6289 30.4141C70.6367 29.6797 72.0508 29.3125 73.8711 29.3125H75.9805V28.3164C75.9805 27.5586 75.7539 26.957 75.3008 26.5117C74.8477 26.0586 74.1797 25.832 73.2969 25.832C72.5234 25.832 71.875 26.0273 71.3516 26.418C70.8281 26.8086 70.5664 27.2812 70.5664 27.8359H68.3867C68.3867 27.2031 68.6094 26.5938 69.0547 26.0078C69.5078 25.4141 70.1172 24.9453 70.8828 24.6016C71.6562 24.2578 72.5039 24.0859 73.4258 24.0859C74.8867 24.0859 76.0312 24.4531 76.8594 25.1875C77.6875 25.9141 78.1172 26.918 78.1484 28.1992V34.0352C78.1484 35.1992 78.2969 36.125 78.5938 36.8125V37H76.3203ZM72.7227 35.3477C73.4023 35.3477 74.0469 35.1719 74.6562 34.8203C75.2656 34.4688 75.707 34.0117 75.9805 33.4492V30.8477H74.2812C71.625 30.8477 70.2969 31.625 70.2969 33.1797C70.2969 33.8594 70.5234 34.3906 70.9766 34.7734C71.4297 35.1562 72.0117 35.3477 72.7227 35.3477ZM91.918 37H89.75V26.1133H83.9141V37H81.7344V24.3203H91.918V37ZM94.8242 30.543C94.8242 29.3008 95.0664 28.1836 95.5508 27.1914C96.043 26.1992 96.7227 25.4336 97.5898 24.8945C98.4648 24.3555 99.4609 24.0859 100.578 24.0859C102.305 24.0859 103.699 24.6836 104.762 25.8789C105.832 27.0742 106.367 28.6641 106.367 30.6484V30.8008C106.367 32.0352 106.129 33.1445 105.652 34.1289C105.184 35.1055 104.508 35.8672 103.625 36.4141C102.75 36.9609 101.742 37.2344 100.602 37.2344C98.8828 37.2344 97.4883 36.6367 96.418 35.4414C95.3555 34.2461 94.8242 32.6641 94.8242 30.6953V30.543ZM97.0039 30.8008C97.0039 32.207 97.3281 33.3359 97.9766 34.1875C98.6328 35.0391 99.5078 35.4648 100.602 35.4648C101.703 35.4648 102.578 35.0352 103.227 34.1758C103.875 33.3086 104.199 32.0977 104.199 30.543C104.199 29.1523 103.867 28.0273 103.203 27.168C102.547 26.3008 101.672 25.8672 100.578 25.8672C99.5078 25.8672 98.6445 26.293 97.9883 27.1445C97.332 27.9961 97.0039 29.2148 97.0039 30.8008ZM119.293 24.3203V37H117.113V26.1133H112.801L112.543 30.8594C112.402 33.0391 112.035 34.5977 111.441 35.5352C110.855 36.4727 109.922 36.9609 108.641 37H107.773V35.0898L108.395 35.043C109.098 34.9648 109.602 34.5586 109.906 33.8242C110.211 33.0898 110.406 31.7305 110.492 29.7461L110.727 24.3203H119.293ZM133.133 37H130.965V31.5859H125.141V37H122.961V24.3203H125.141V29.8164H130.965V24.3203H133.133V37ZM144.828 24.3203H146.996V37H144.828V27.7539L138.98 37H136.812V24.3203H138.98V33.5781L144.828 24.3203ZM159.898 26.0781H155.645V37H153.477V26.0781H149.305V24.3203H159.898V26.0781ZM164.375 28.6914H167.668C169.105 28.707 170.242 29.082 171.078 29.8164C171.914 30.5508 172.332 31.5469 172.332 32.8047C172.332 34.0703 171.902 35.0859 171.043 35.8516C170.184 36.6172 169.027 37 167.574 37H162.207V24.3203H164.375V28.6914ZM164.375 30.4609V35.2305H167.598C168.41 35.2305 169.039 35.0234 169.484 34.6094C169.93 34.1875 170.152 33.6133 170.152 32.8867C170.152 32.1836 169.934 31.6094 169.496 31.1641C169.066 30.7109 168.461 30.4766 167.68 30.4609H164.375Z" fill="white"/>
<defs>
<filter id="filter0_d" x="0" y="0" width="226" height="65" filterUnits="userSpaceOnUse" color-interpolation-filters="sRGB">
<feFlood flood-opacity="0" result="BackgroundImageFix"/>
<feColorMatrix in="SourceAlpha" type="matrix" values="0 0 0 0 0 0 0 0 0 0 0 0 0 0 0 0 0 0 127 0"/>
<feOffset dy="4"/>
<feGaussianBlur stdDeviation="2"/>
<feColorMatrix type="matrix" values="0 0 0 0 0 0 0 0 0 0 0 0 0 0 0 0 0 0 0.25 0"/>
<feBlend mode="normal" in2="BackgroundImageFix" result="effect1_dropShadow"/>
<feBlend mode="normal" in="SourceGraphic" in2="effect1_dropShadow" result="shape"/>
</filter>
</defs>
</svg>
