<svg width="286" height="44" viewBox="0 0 286 44" fill="none" xmlns="http://www.w3.org/2000/svg">
<path d="M0 0H286V44H0V0Z" fill="#1D4CC5"/>
<path d="M96.1826 16.2031H97.8701V29H96.1826V19.1387L89.8809 29H88.1846V16.2031H89.8809V26.0645L96.1826 16.2031ZM108.461 29H106.835V24.9395H102.467V29H100.832V19.4902H102.467V23.6123H106.835V19.4902H108.461V29ZM110.729 24.4209C110.729 22.833 111.036 21.585 111.651 20.6768C112.267 19.7686 113.11 19.3145 114.183 19.3145C114.681 19.3145 115.117 19.3994 115.492 19.5693V15.5H117.118V19.6221C117.528 19.417 118.009 19.3145 118.56 19.3145C119.638 19.3145 120.484 19.7686 121.1 20.6768C121.715 21.585 122.022 22.8945 122.022 24.6055C122.022 26.0059 121.715 27.1191 121.1 27.9453C120.49 28.7715 119.649 29.1846 118.577 29.1846C118.009 29.1846 117.522 29.0908 117.118 28.9033V32.6562H115.492V28.9297C115.105 29.0996 114.663 29.1846 114.165 29.1846C113.099 29.1846 112.258 28.7715 111.643 27.9453C111.033 27.1191 110.729 25.9883 110.729 24.5527V24.4209ZM120.396 24.4209C120.396 23.2256 120.191 22.2998 119.781 21.6436C119.371 20.9814 118.806 20.6504 118.085 20.6504C117.716 20.6504 117.394 20.709 117.118 20.8262V27.708C117.382 27.8076 117.71 27.8574 118.103 27.8574C118.829 27.8574 119.392 27.5762 119.79 27.0137C120.194 26.4512 120.396 25.5869 120.396 24.4209ZM112.354 24.6055C112.354 25.6719 112.545 26.4805 112.926 27.0312C113.307 27.582 113.854 27.8574 114.569 27.8574C114.909 27.8574 115.217 27.8047 115.492 27.6992V20.7998C115.246 20.7002 114.944 20.6504 114.587 20.6504C113.872 20.6504 113.321 20.9697 112.935 21.6084C112.548 22.2471 112.354 23.2461 112.354 24.6055ZM123.71 24.1572C123.71 23.2256 123.892 22.3877 124.255 21.6436C124.624 20.8994 125.134 20.3252 125.784 19.9209C126.44 19.5166 127.188 19.3145 128.025 19.3145C129.32 19.3145 130.366 19.7627 131.163 20.6592C131.966 21.5557 132.367 22.748 132.367 24.2363V24.3506C132.367 25.2764 132.188 26.1084 131.831 26.8467C131.479 27.5791 130.973 28.1504 130.311 28.5605C129.654 28.9707 128.898 29.1758 128.043 29.1758C126.754 29.1758 125.708 28.7275 124.905 27.8311C124.108 26.9346 123.71 25.748 123.71 24.2715V24.1572ZM125.345 24.3506C125.345 25.4053 125.588 26.252 126.074 26.8906C126.566 27.5293 127.223 27.8486 128.043 27.8486C128.869 27.8486 129.525 27.5264 130.012 26.8818C130.498 26.2314 130.741 25.3232 130.741 24.1572C130.741 23.1143 130.492 22.2705 129.994 21.626C129.502 20.9756 128.846 20.6504 128.025 20.6504C127.223 20.6504 126.575 20.9697 126.083 21.6084C125.591 22.2471 125.345 23.1611 125.345 24.3506ZM142.439 24.3506C142.439 25.7979 142.108 26.9639 141.446 27.8486C140.784 28.7334 139.888 29.1758 138.757 29.1758C137.603 29.1758 136.694 28.8096 136.032 28.0771V32.6562H134.406V19.4902H135.892L135.971 20.5449C136.633 19.7246 137.553 19.3145 138.73 19.3145C139.873 19.3145 140.775 19.7451 141.438 20.6064C142.105 21.4678 142.439 22.666 142.439 24.2012V24.3506ZM140.813 24.166C140.813 23.0938 140.585 22.2471 140.128 21.626C139.671 21.0049 139.044 20.6943 138.247 20.6943C137.263 20.6943 136.524 21.1309 136.032 22.0039V26.5479C136.519 27.415 137.263 27.8486 138.265 27.8486C139.044 27.8486 139.662 27.541 140.119 26.9258C140.582 26.3047 140.813 25.3848 140.813 24.166ZM149.989 26.8467L153.224 19.4902H155.254V29H153.628V22.083L150.552 29H149.427L146.289 21.9336V29H144.663V19.4902H146.772L149.989 26.8467ZM163.744 29C163.65 28.8125 163.574 28.4785 163.516 27.998C162.76 28.7832 161.857 29.1758 160.809 29.1758C159.871 29.1758 159.101 28.9121 158.497 28.3848C157.899 27.8516 157.601 27.1777 157.601 26.3633C157.601 25.373 157.976 24.6055 158.726 24.0605C159.481 23.5098 160.542 23.2344 161.907 23.2344H163.489V22.4873C163.489 21.9189 163.319 21.4678 162.979 21.1338C162.64 20.7939 162.139 20.624 161.477 20.624C160.896 20.624 160.41 20.7705 160.018 21.0635C159.625 21.3564 159.429 21.7109 159.429 22.127H157.794C157.794 21.6523 157.961 21.1953 158.295 20.7559C158.635 20.3105 159.092 19.959 159.666 19.7012C160.246 19.4434 160.882 19.3145 161.573 19.3145C162.669 19.3145 163.527 19.5898 164.148 20.1406C164.77 20.6855 165.092 21.4385 165.115 22.3994V26.7764C165.115 27.6494 165.227 28.3438 165.449 28.8594V29H163.744ZM161.046 27.7607C161.556 27.7607 162.039 27.6289 162.496 27.3652C162.953 27.1016 163.284 26.7588 163.489 26.3369V24.3857H162.215C160.223 24.3857 159.227 24.9688 159.227 26.1348C159.227 26.6445 159.396 27.043 159.736 27.3301C160.076 27.6172 160.513 27.7607 161.046 27.7607ZM167.805 19.4902H169.439V27.6729H173.816V19.4902H175.442V27.6729H176.576L176.418 31.8213H174.959V29H167.805V19.4902ZM184.486 19.4902H186.112V29H184.486V22.0654L180.101 29H178.475V19.4902H180.101V26.4336L184.486 19.4902ZM195.991 19.4902V29H194.356V25.2998H191.904L189.663 29H187.905L190.296 25.0537C189.687 24.8311 189.218 24.4883 188.89 24.0254C188.567 23.5566 188.406 23.0117 188.406 22.3906C188.406 21.5234 188.731 20.8262 189.382 20.2988C190.032 19.7656 190.902 19.4961 191.992 19.4902H195.991ZM190.041 22.4082C190.041 22.8711 190.199 23.2461 190.516 23.5332C190.832 23.8145 191.251 23.958 191.772 23.9639H194.356V20.8086H192.019C191.415 20.8086 190.935 20.958 190.577 21.2568C190.22 21.5498 190.041 21.9336 190.041 22.4082Z" fill="white"/>
</svg>
