<svg width="235" height="44" viewBox="0 0 235 44" fill="none" xmlns="http://www.w3.org/2000/svg">
<rect width="235" height="44" fill="#1D4CC5"/>
<path d="M19.458 29H17.7617V23.085H11.3105V29H9.62305V16.2031H11.3105V21.7051H17.7617V16.2031H19.458V29ZM26.1465 29.1758C24.8574 29.1758 23.8086 28.7539 23 27.9102C22.1914 27.0605 21.7871 25.9268 21.7871 24.5088V24.21C21.7871 23.2666 21.9658 22.4258 22.3232 21.6875C22.6865 20.9434 23.1904 20.3633 23.835 19.9473C24.4854 19.5254 25.1885 19.3145 25.9443 19.3145C27.1807 19.3145 28.1416 19.7217 28.8271 20.5361C29.5127 21.3506 29.8555 22.5166 29.8555 24.0342V24.7109H23.4131C23.4365 25.6484 23.709 26.4072 24.2305 26.9873C24.7578 27.5615 25.4258 27.8486 26.2344 27.8486C26.8086 27.8486 27.2949 27.7314 27.6934 27.4971C28.0918 27.2627 28.4404 26.9521 28.7393 26.5654L29.7324 27.3389C28.9355 28.5635 27.7402 29.1758 26.1465 29.1758ZM25.9443 20.6504C25.2881 20.6504 24.7373 20.8906 24.292 21.3711C23.8467 21.8457 23.5713 22.5137 23.4658 23.375H28.2295V23.252C28.1826 22.4258 27.96 21.7871 27.5615 21.3359C27.1631 20.8789 26.624 20.6504 25.9443 20.6504ZM31.3145 24.1572C31.3145 23.2256 31.4961 22.3877 31.8594 21.6436C32.2285 20.8994 32.7383 20.3252 33.3887 19.9209C34.0449 19.5166 34.792 19.3145 35.6299 19.3145C36.9248 19.3145 37.9707 19.7627 38.7676 20.6592C39.5703 21.5557 39.9717 22.748 39.9717 24.2363V24.3506C39.9717 25.2764 39.793 26.1084 39.4355 26.8467C39.084 27.5791 38.5771 28.1504 37.915 28.5605C37.2588 28.9707 36.5029 29.1758 35.6475 29.1758C34.3584 29.1758 33.3125 28.7275 32.5098 27.8311C31.7129 26.9346 31.3145 25.748 31.3145 24.2715V24.1572ZM32.9492 24.3506C32.9492 25.4053 33.1924 26.252 33.6787 26.8906C34.1709 27.5293 34.8271 27.8486 35.6475 27.8486C36.4736 27.8486 37.1299 27.5264 37.6162 26.8818C38.1025 26.2314 38.3457 25.3232 38.3457 24.1572C38.3457 23.1143 38.0967 22.2705 37.5986 21.626C37.1064 20.9756 36.4502 20.6504 35.6299 20.6504C34.8271 20.6504 34.1797 20.9697 33.6875 21.6084C33.1953 22.2471 32.9492 23.1611 32.9492 24.3506ZM46.1855 20.0352C47.3809 20.0352 48.3359 20.4365 49.0508 21.2393C49.7715 22.0361 50.1318 23.0879 50.1318 24.3945V24.5439C50.1318 25.4404 49.959 26.2432 49.6133 26.9521C49.2676 27.6553 48.7695 28.2031 48.1191 28.5957C47.4746 28.9824 46.7305 29.1758 45.8867 29.1758C44.6094 29.1758 43.5811 28.751 42.8018 27.9014C42.0225 27.0459 41.6328 25.9004 41.6328 24.4648V23.6738C41.6328 21.6758 42.002 20.0879 42.7402 18.9102C43.4844 17.7324 44.5801 17.0146 46.0273 16.7568C46.8477 16.6104 47.4014 16.4316 47.6885 16.2207C47.9756 16.0098 48.1191 15.7197 48.1191 15.3506H49.4551C49.4551 16.083 49.2881 16.6543 48.9541 17.0645C48.626 17.4746 48.0986 17.7646 47.3721 17.9346L46.1592 18.207C45.1924 18.4355 44.4658 18.8223 43.9795 19.3672C43.499 19.9062 43.1855 20.627 43.0391 21.5293C43.9004 20.5332 44.9492 20.0352 46.1855 20.0352ZM45.8691 21.3711C45.0723 21.3711 44.4395 21.6406 43.9707 22.1797C43.502 22.7129 43.2676 23.4541 43.2676 24.4033V24.5439C43.2676 25.5635 43.502 26.3721 43.9707 26.9697C44.4453 27.5615 45.084 27.8574 45.8867 27.8574C46.6953 27.8574 47.334 27.5586 47.8027 26.9609C48.2715 26.3633 48.5059 25.4902 48.5059 24.3418C48.5059 23.4453 48.2686 22.7275 47.7939 22.1885C47.3252 21.6436 46.6836 21.3711 45.8691 21.3711ZM55.0098 22.9619L57.1191 19.4902H59.0176L55.9062 24.1924L59.1143 29H57.2334L55.0361 25.4404L52.8389 29H50.9492L54.1572 24.1924L51.0459 19.4902H52.9268L55.0098 22.9619ZM60.1426 24.1572C60.1426 23.2256 60.3242 22.3877 60.6875 21.6436C61.0566 20.8994 61.5664 20.3252 62.2168 19.9209C62.873 19.5166 63.6201 19.3145 64.458 19.3145C65.7529 19.3145 66.7988 19.7627 67.5957 20.6592C68.3984 21.5557 68.7998 22.748 68.7998 24.2363V24.3506C68.7998 25.2764 68.6211 26.1084 68.2637 26.8467C67.9121 27.5791 67.4053 28.1504 66.7432 28.5605C66.0869 28.9707 65.3311 29.1758 64.4756 29.1758C63.1865 29.1758 62.1406 28.7275 61.3379 27.8311C60.541 26.9346 60.1426 25.748 60.1426 24.2715V24.1572ZM61.7773 24.3506C61.7773 25.4053 62.0205 26.252 62.5068 26.8906C62.999 27.5293 63.6553 27.8486 64.4756 27.8486C65.3018 27.8486 65.958 27.5264 66.4443 26.8818C66.9307 26.2314 67.1738 25.3232 67.1738 24.1572C67.1738 23.1143 66.9248 22.2705 66.4268 21.626C65.9346 20.9756 65.2783 20.6504 64.458 20.6504C63.6553 20.6504 63.0078 20.9697 62.5156 21.6084C62.0234 22.2471 61.7773 23.1611 61.7773 24.3506ZM70.127 27.6729L70.6895 26.9785C71.3223 26.1582 71.6826 24.9277 71.7705 23.2871L71.9199 19.4902H78.0459V27.6729H79.2676V31.7949H77.6416V29H71.0059V31.7949H69.3799L69.3887 27.6729H70.127ZM72.0518 27.6729H76.4199V20.9932H73.4932L73.3965 23.2607C73.2969 25.1533 72.8486 26.624 72.0518 27.6729ZM87.2217 19.4902H88.8477V29H87.2217V22.0654L82.8359 29H81.21V19.4902H82.8359V26.4336L87.2217 19.4902ZM96.9336 26.8467L100.168 19.4902H102.198V29H100.572V22.083L97.4961 29H96.3711L93.2334 21.9336V29H91.6074V19.4902H93.7168L96.9336 26.8467ZM106.593 22.7686H109.062C110.141 22.7803 110.993 23.0615 111.62 23.6123C112.247 24.1631 112.561 24.9102 112.561 25.8535C112.561 26.8027 112.238 27.5645 111.594 28.1387C110.949 28.7129 110.082 29 108.992 29H104.967V19.4902H106.593V22.7686ZM115.953 29H114.318V19.4902H115.953V29ZM106.593 24.0957V27.6729H109.01C109.619 27.6729 110.091 27.5176 110.425 27.207C110.759 26.8906 110.926 26.46 110.926 25.915C110.926 25.3877 110.762 24.957 110.434 24.623C110.111 24.2832 109.657 24.1074 109.071 24.0957H106.593ZM122.738 29.1758C121.449 29.1758 120.4 28.7539 119.592 27.9102C118.783 27.0605 118.379 25.9268 118.379 24.5088V24.21C118.379 23.2666 118.558 22.4258 118.915 21.6875C119.278 20.9434 119.782 20.3633 120.427 19.9473C121.077 19.5254 121.78 19.3145 122.536 19.3145C123.772 19.3145 124.733 19.7217 125.419 20.5361C126.104 21.3506 126.447 22.5166 126.447 24.0342V24.7109H120.005C120.028 25.6484 120.301 26.4072 120.822 26.9873C121.35 27.5615 122.018 27.8486 122.826 27.8486C123.4 27.8486 123.887 27.7314 124.285 27.4971C124.684 27.2627 125.032 26.9521 125.331 26.5654L126.324 27.3389C125.527 28.5635 124.332 29.1758 122.738 29.1758ZM122.536 20.6504C121.88 20.6504 121.329 20.8906 120.884 21.3711C120.438 21.8457 120.163 22.5137 120.058 23.375H124.821V23.252C124.774 22.4258 124.552 21.7871 124.153 21.3359C123.755 20.8789 123.216 20.6504 122.536 20.6504ZM132.723 27.6729L133.285 26.9785C133.918 26.1582 134.278 24.9277 134.366 23.2871L134.516 19.4902H140.642V27.6729H141.863V31.7949H140.237V29H133.602V31.7949H131.976L131.984 27.6729H132.723ZM134.647 27.6729H139.016V20.9932H136.089L135.992 23.2607C135.893 25.1533 135.444 26.624 134.647 27.6729ZM143.234 24.1572C143.234 23.2256 143.416 22.3877 143.779 21.6436C144.148 20.8994 144.658 20.3252 145.309 19.9209C145.965 19.5166 146.712 19.3145 147.55 19.3145C148.845 19.3145 149.891 19.7627 150.688 20.6592C151.49 21.5557 151.892 22.748 151.892 24.2363V24.3506C151.892 25.2764 151.713 26.1084 151.355 26.8467C151.004 27.5791 150.497 28.1504 149.835 28.5605C149.179 28.9707 148.423 29.1758 147.567 29.1758C146.278 29.1758 145.232 28.7275 144.43 27.8311C143.633 26.9346 143.234 25.748 143.234 24.2715V24.1572ZM144.869 24.3506C144.869 25.4053 145.112 26.252 145.599 26.8906C146.091 27.5293 146.747 27.8486 147.567 27.8486C148.394 27.8486 149.05 27.5264 149.536 26.8818C150.022 26.2314 150.266 25.3232 150.266 24.1572C150.266 23.1143 150.017 22.2705 149.519 21.626C149.026 20.9756 148.37 20.6504 147.55 20.6504C146.747 20.6504 146.1 20.9697 145.607 21.6084C145.115 22.2471 144.869 23.1611 144.869 24.3506ZM156.893 24.9482H155.706V29H154.071V19.4902H155.706V23.5156H156.77L159.969 19.4902H161.938L158.176 24.0605L162.254 29H160.188L156.893 24.9482ZM166.763 26.6182L168.978 19.4902H170.718L166.895 30.4678C166.303 32.0498 165.362 32.8408 164.073 32.8408L163.766 32.8145L163.159 32.7002V31.3818L163.599 31.417C164.149 31.417 164.577 31.3057 164.882 31.083C165.192 30.8604 165.447 30.4531 165.646 29.8613L166.007 28.8945L162.614 19.4902H164.39L166.763 26.6182ZM177.652 26.8467L180.887 19.4902H182.917V29H181.291V22.083L178.215 29H177.09L173.952 21.9336V29H172.326V19.4902H174.436L177.652 26.8467ZM189.482 29.1758C188.193 29.1758 187.145 28.7539 186.336 27.9102C185.527 27.0605 185.123 25.9268 185.123 24.5088V24.21C185.123 23.2666 185.302 22.4258 185.659 21.6875C186.022 20.9434 186.526 20.3633 187.171 19.9473C187.821 19.5254 188.524 19.3145 189.28 19.3145C190.517 19.3145 191.478 19.7217 192.163 20.5361C192.849 21.3506 193.191 22.5166 193.191 24.0342V24.7109H186.749C186.772 25.6484 187.045 26.4072 187.566 26.9873C188.094 27.5615 188.762 27.8486 189.57 27.8486C190.145 27.8486 190.631 27.7314 191.029 27.4971C191.428 27.2627 191.776 26.9521 192.075 26.5654L193.068 27.3389C192.271 28.5635 191.076 29.1758 189.482 29.1758ZM189.28 20.6504C188.624 20.6504 188.073 20.8906 187.628 21.3711C187.183 21.8457 186.907 22.5137 186.802 23.375H191.565V23.252C191.519 22.4258 191.296 21.7871 190.897 21.3359C190.499 20.8789 189.96 20.6504 189.28 20.6504ZM202.851 29H201.225V24.9395H196.856V29H195.222V19.4902H196.856V23.6123H201.225V19.4902H202.851V29ZM212.536 20.8086H209.346V29H207.72V20.8086H204.591V19.4902H212.536V20.8086ZM215.894 22.7686H218.363C219.441 22.7803 220.294 23.0615 220.921 23.6123C221.548 24.1631 221.861 24.9102 221.861 25.8535C221.861 26.8027 221.539 27.5645 220.895 28.1387C220.25 28.7129 219.383 29 218.293 29H214.268V19.4902H215.894V22.7686ZM225.254 29H223.619V19.4902H225.254V29ZM215.894 24.0957V27.6729H218.311C218.92 27.6729 219.392 27.5176 219.726 27.207C220.06 26.8906 220.227 26.46 220.227 25.915C220.227 25.3877 220.062 24.957 219.734 24.623C219.412 24.2832 218.958 24.1074 218.372 24.0957H215.894Z" fill="white"/>
</svg>
