<svg width="137" height="44" viewBox="0 0 137 44" fill="none" xmlns="http://www.w3.org/2000/svg">
<rect width="137" height="44" fill="#1D4CC5"/>
<path d="M38.2695 21L41.375 12.9375H45.1719L39.207 27.0117L38.7266 27.9375C37.8438 29.4766 36.4922 30.2461 34.6719 30.2461L33.4414 30.1992L33.4062 27.375C33.5938 27.4062 33.8984 27.4219 34.3203 27.4219C34.8125 27.4219 35.207 27.3359 35.5039 27.1641C35.8086 26.9922 36.0625 26.6758 36.2656 26.2148L36.6992 25.1016L30.7109 12.9375H34.4961L38.2695 21ZM47.0352 30V12.9375H53.0117C55.082 12.9375 56.6523 13.3359 57.7227 14.1328C58.793 14.9219 59.3281 16.082 59.3281 17.6133C59.3281 18.4492 59.1133 19.1875 58.6836 19.8281C58.2539 20.4609 57.6562 20.9258 56.8906 21.2227C57.7656 21.4414 58.4531 21.8828 58.9531 22.5469C59.4609 23.2109 59.7148 24.0234 59.7148 24.9844C59.7148 26.625 59.1914 27.8672 58.1445 28.7109C57.0977 29.5547 55.6055 29.9844 53.668 30H47.0352ZM50.5508 22.5703V27.1758H53.5625C54.3906 27.1758 55.0352 26.9805 55.4961 26.5898C55.9648 26.1914 56.1992 25.6445 56.1992 24.9492C56.1992 23.3867 55.3906 22.5938 53.7734 22.5703H50.5508ZM50.5508 20.0859H53.1523C54.9258 20.0547 55.8125 19.3477 55.8125 17.9648C55.8125 17.1914 55.5859 16.6367 55.1328 16.3008C54.6875 15.957 53.9805 15.7852 53.0117 15.7852H50.5508V20.0859ZM69.7812 17.3203H73.168V30H69.7812V22.1719L65.5391 30H62.1406V17.3203H65.5391V25.1367L69.7812 17.3203ZM89.375 24.3164C89.2422 26.1523 88.5625 27.5977 87.3359 28.6523C86.1172 29.707 84.5078 30.2344 82.5078 30.2344C80.3203 30.2344 78.5977 29.5 77.3398 28.0312C76.0898 26.5547 75.4648 24.5312 75.4648 21.9609V20.918C75.4648 19.2773 75.7539 17.832 76.332 16.582C76.9102 15.332 77.7344 14.375 78.8047 13.7109C79.8828 13.0391 81.1328 12.7031 82.5547 12.7031C84.5234 12.7031 86.1094 13.2305 87.3125 14.2852C88.5156 15.3398 89.2109 16.8203 89.3984 18.7266H85.8828C85.7969 17.625 85.4883 16.8281 84.957 16.3359C84.4336 15.8359 83.6328 15.5859 82.5547 15.5859C81.3828 15.5859 80.5039 16.0078 79.918 16.8516C79.3398 17.6875 79.043 18.9883 79.0273 20.7539V22.043C79.0273 23.8867 79.3047 25.2344 79.8594 26.0859C80.4219 26.9375 81.3047 27.3633 82.5078 27.3633C83.5938 27.3633 84.4023 27.1172 84.9336 26.625C85.4727 26.125 85.7812 25.3555 85.8594 24.3164H89.375ZM95.1992 23.9883V30H91.6836V12.9375H98.3398C99.6211 12.9375 100.746 13.1719 101.715 13.6406C102.691 14.1094 103.441 14.7773 103.965 15.6445C104.488 16.5039 104.75 17.4844 104.75 18.5859C104.75 20.2578 104.176 21.5781 103.027 22.5469C101.887 23.5078 100.305 23.9883 98.2812 23.9883H95.1992ZM95.1992 21.1406H98.3398C99.2695 21.1406 99.9766 20.9219 100.461 20.4844C100.953 20.0469 101.199 19.4219 101.199 18.6094C101.199 17.7734 100.953 17.0977 100.461 16.582C99.9688 16.0664 99.2891 15.8008 98.4219 15.7852H95.1992V21.1406Z" fill="white"/>
</svg>
